<svg width="520" height="520" viewBox="0 0 520 520" fill="none" xmlns="http://www.w3.org/2000/svg">
<g clip-path="url(#clip0_114_96)" filter="url(#filter0_d_114_96)">
<path d="M441.605 288.228L441.605 288.228C486.966 259.902 514.5 210.183 514.5 156.7V151C514.5 68.4284 447.571 1.5 365 1.5C336.984 1.5 309.558 9.41957 285.693 24.2731L441.605 288.228ZM441.605 288.228L101.106 501.027L441.605 288.228ZM325.106 147.027L325.103 147.029C295.804 165.29 257.233 156.4 238.973 127.107C220.71 97.8073 229.599 59.2334 258.893 40.9731C258.893 40.973 258.893 40.973 258.893 40.9729L285.693 24.2735L325.9 148.3L325.106 147.027ZM325.106 147.027L351.903 130.229L352.269 130H352.379M325.106 147.027L352.379 130M352.379 130C356.224 127.701 360.561 126.5 365 126.5C378.528 126.5 389.5 137.472 389.5 151V156.6C389.5 167.014 384.136 176.696 375.295 182.172C375.293 182.173 375.291 182.174 375.289 182.175L34.8964 394.971C5.59626 413.332 -3.28907 451.809 14.9729 481.107C33.2329 510.401 71.8058 519.29 101.105 501.028L352.379 130ZM301.61 48.5249L300.603 49.1485L300.976 50.2723L321.676 112.672L322.278 114.486L323.897 113.471L336.479 105.582C336.482 105.58 336.485 105.578 336.488 105.576C341.458 102.556 346.814 100.318 352.358 98.9567L353.936 98.5691L353.423 97.0271L333.223 36.2271L332.768 34.8558L331.38 35.2598C320.95 38.2978 310.926 42.7532 301.61 48.5249ZM389.839 101.439L388.405 102.873L390.196 103.825C399.532 108.784 407.216 116.468 412.175 125.804L413.127 127.595L414.561 126.161L460.761 79.9607L461.689 79.032L460.891 77.9888C454.311 69.3834 446.617 61.6891 438.011 55.1085L436.968 54.3107L436.039 55.2393L389.839 101.439ZM418.952 160.478C418.85 160.575 418.767 160.68 418.705 160.774L417.022 162.456L418.295 162.88C418.23 163.172 418.151 163.507 418.06 163.882C417.573 165.877 416.754 168.851 415.707 172.174C413.591 178.886 410.623 186.75 407.674 190.936L406.512 192.584L408.425 193.223L470.425 213.923L471.665 214.337L472.244 213.165C476.998 203.557 480.641 193.237 482.868 182.608L483.142 181.299L481.874 180.877L421.246 160.7C421.086 160.471 420.821 160.218 420.391 160.105C419.572 159.89 419.023 160.41 418.954 160.476L418.952 160.478ZM418.533 161.636C418.533 161.598 418.536 161.59 418.534 161.624C418.534 161.627 418.533 161.63 418.533 161.636ZM334.494 243.028L333.699 242.531L332.904 243.028L302.704 261.928L300.67 263.202L302.706 264.472L363.106 302.172L363.901 302.669L364.696 302.172L394.896 283.272L396.93 281.998L394.894 280.728L334.494 243.028ZM227.294 310.028L226.499 309.531L225.704 310.028L195.504 328.928L193.47 330.202L195.506 331.472L255.906 369.172L256.701 369.669L257.496 369.172L287.696 350.272L289.73 348.998L287.694 347.728L227.294 310.028ZM124.094 374.428L123.299 373.931L122.504 374.428L92.3041 393.328L90.2697 394.602L92.3057 395.872L152.706 433.572L153.501 434.069L154.296 433.572L184.496 414.672L186.53 413.398L184.494 412.128L124.094 374.428Z" fill="#BA0B0B" stroke="#4A0404" stroke-width="3"/>
</g>
<defs>
<filter id="filter0_d_114_96" x="0" y="0" width="520" height="520" filterUnits="userSpaceOnUse" color-interpolation-filters="sRGB">
<feFlood flood-opacity="0" result="BackgroundImageFix"/>
<feColorMatrix in="SourceAlpha" type="matrix" values="0 0 0 0 0 0 0 0 0 0 0 0 0 0 0 0 0 0 127 0" result="hardAlpha"/>
<feOffset dy="4"/>
<feGaussianBlur stdDeviation="2"/>
<feColorMatrix type="matrix" values="0 0 0 0 1 0 0 0 0 1 0 0 0 0 1 0 0 0 1 0"/>
<feBlend mode="normal" in2="BackgroundImageFix" result="effect1_dropShadow_114_96"/>
<feBlend mode="normal" in="SourceGraphic" in2="effect1_dropShadow_114_96" result="shape"/>
</filter>
<clipPath id="clip0_114_96">
<rect width="512" height="512" fill="white" transform="translate(4)"/>
</clipPath>
</defs>
</svg>
