<svg width="186" height="190" viewBox="0 0 186 190" fill="none" xmlns="http://www.w3.org/2000/svg">
<path d="M158.723 38.5713L182 14.7805L171.452 4L148.176 27.7908L132.35 11.6223L123.762 29.1767C112.226 22.8488 99.0492 19.2469 85.0424 19.2469C59.7385 19.2469 37.1375 30.9627 22.0814 49.3656L27.881 55.2841L47.4815 45.0707C48.8218 44.3709 50.5469 44.5859 51.6679 45.7339C52.8045 46.8957 53.0104 48.6429 52.3011 50.0059L42.3308 70.0553L57.8814 85.9699C59.2865 87.4084 59.2865 89.7434 57.8724 91.1818C57.0289 92.044 55.8699 92.387 54.769 92.1995L54.7847 92.1698L33.0496 88.6799L23.0637 108.704C22.3723 110.111 20.8866 110.932 19.298 110.678C17.7093 110.424 16.5593 109.143 16.3109 107.618L12.8584 85.4028L5.18156 84.1587C3.80103 90.2511 3 96.5767 3 103.099C3 149.404 39.7308 186.953 85.0424 186.953C95.7623 186.953 105.981 184.788 115.372 180.962L113.544 169.237L91.8176 165.699C90.3229 165.461 89.0766 164.279 88.8148 162.685C88.5687 161.024 89.3832 159.535 90.7525 158.822C90.7458 158.815 110.353 148.609 110.353 148.609L106.916 126.403L106.907 126.409C106.71 125.287 107.048 124.086 107.885 123.231C109.313 121.792 111.599 121.808 112.991 123.222L113.004 123.208L128.571 139.122L148.171 128.925C149.511 128.216 151.23 128.424 152.351 129.579C153.481 130.734 153.691 132.488 152.984 133.844L143.021 153.885L146.997 157.958C159.48 143.246 167.085 124.091 167.085 103.099C167.085 88.7829 163.561 75.3175 157.37 63.5239L174.545 54.7467L158.723 38.5713ZM73.2351 132.438V132.422L65.8223 137.931L68.6572 146.836C68.8541 147.461 68.6572 148.144 68.118 148.547C67.572 148.949 66.865 148.92 66.3548 148.54L58.9375 143.04L51.5247 148.54C51.0123 148.92 50.3008 148.949 49.7772 148.547C49.2223 148.144 49.0343 147.461 49.2223 146.836L52.0572 137.931L44.6488 132.431V132.438C44.2707 132.163 44.0223 131.708 44.0223 131.203C44.0223 130.354 44.7092 129.661 45.5237 129.661H54.6862L57.5212 120.756C57.7114 120.136 58.2797 119.691 58.942 119.691C59.6043 119.691 60.1726 120.136 60.3628 120.756L63.1977 129.661H72.3603C73.1837 129.661 73.8616 130.354 73.8616 131.203C73.8549 131.708 73.6155 132.163 73.2351 132.438ZM121.402 66.0578V66.0258L110.286 74.2884L114.53 87.644C114.83 88.5816 114.53 89.6084 113.723 90.2213C112.908 90.8159 111.843 90.7702 111.078 90.2053L99.9554 81.9587L88.8327 90.2053C88.0675 90.7702 87.0069 90.8159 86.2037 90.2213C85.3803 89.6084 85.0894 88.5816 85.3892 87.644C85.3803 87.644 89.6293 74.2884 89.6293 74.2884L78.5201 66.0418V66.0578C77.9518 65.6393 77.5804 64.9555 77.5804 64.1962C77.5804 62.9315 78.6007 61.8887 79.8313 61.8887H93.5762L97.8297 48.5331C98.1139 47.6115 98.9664 46.9414 99.9554 46.9414C100.953 46.9414 101.806 47.6115 102.083 48.5331L106.334 61.8887H120.079C121.319 61.8887 122.33 62.9315 122.33 64.1962C122.333 64.9532 121.97 65.6393 121.402 66.0578Z" fill="#BA0B0B" stroke="black" stroke-width="5"/>
</svg>
