<svg width="39" height="39" viewBox="0 0 39 39" fill="none" xmlns="http://www.w3.org/2000/svg">
<path d="M18.6343 2.10684L18.6339 2.10659C16.8138 1.01882 14.8024 0.5 12.8191 0.5C8.59434 0.5 4.48577 2.85355 2.50157 7.04211C-0.0256958 12.3869 2.29336 18.8435 7.41925 21.9111C7.41954 21.9112 7.41984 21.9114 7.42013 21.9116L33.1904 37.2343C33.1913 37.2348 33.1922 37.2353 33.1931 37.2359C33.5051 37.4152 33.8339 37.5014 34.1577 37.5014C34.7967 37.5014 35.4177 37.1732 35.7698 36.5867C35.7699 36.5866 35.77 36.5864 35.7701 36.5863L38.2041 32.5123L38.2043 32.5119C38.7381 31.6203 38.4509 30.4731 37.5604 29.9397C37.5603 29.9396 37.5602 29.9395 37.56 29.9394L11.3168 14.3464L11.3141 14.3448C9.95959 13.5285 9.50787 11.7601 10.3275 10.4001C10.8662 9.50298 11.8182 9.00034 12.7968 9.00034C13.2948 9.00034 13.8085 9.12479 14.2719 9.40595C14.2725 9.40632 14.2731 9.4067 14.2738 9.40708L16.3079 10.6202C16.6198 10.7995 16.9486 10.8856 17.2724 10.8856C17.9113 10.8856 18.5324 10.5574 18.8845 9.97087C18.8846 9.97074 18.8846 9.9706 18.8847 9.97047L21.3187 5.89651L21.3189 5.89612C21.8527 5.00451 21.5655 3.85718 20.675 3.32382C20.6749 3.32376 20.6748 3.32369 20.6747 3.32363L18.6343 2.10684ZM15.8986 8.0627L15.7015 8.65402L15.167 8.33333L14.9815 8.222C14.4319 7.89229 13.7983 7.72292 13.1272 7.66813L12.492 7.61628L12.6936 7.01168L14.2225 2.42479L14.3621 2.00605L14.7949 2.09262C15.6161 2.25684 16.406 2.52281 17.1638 2.89L17.559 3.08148L17.4201 3.49808L15.8986 8.0627ZM28.4142 32.4706L28.1548 32.6357L27.8904 32.4787L25.6044 31.1204L24.9055 30.7052L25.5914 30.2687L30.0817 27.4112L30.3412 27.2461L30.6056 27.4032L32.8916 28.7614L33.5905 29.1767L32.9046 29.6131L28.4142 32.4706ZM20.4354 27.7279L20.176 27.893L19.9116 27.7359L17.6256 26.3777L16.9267 25.9624L17.6125 25.526L22.1029 22.6685L22.3624 22.5034L22.6268 22.6604L24.9128 24.0187L25.6117 24.4339L24.9258 24.8704L20.4354 27.7279ZM12.2043 22.8367L11.9448 23.0018L11.6805 22.8447L9.39443 21.4865L8.69555 21.0712L9.38139 20.6348L13.8718 17.7773L14.1312 17.6122L14.3956 17.7692L16.6816 19.1275L17.3805 19.5427L16.6947 19.9792L12.2043 22.8367ZM6.70155 3.96136L7.04977 3.69191L7.3611 4.00324L10.7753 7.41743L10.4217 7.77098L10.6748 8.20219C10.0587 8.56386 9.52607 9.07114 9.14836 9.6874L8.81695 10.2281L8.36851 9.77968L4.97659 6.38776L4.66473 6.0759L4.93522 5.72755C5.45053 5.0639 6.04439 4.46988 6.70155 3.96136ZM9.17236 14.044L9.49561 14.5794L8.9022 14.7769L4.48603 16.2465L4.32816 15.7721L3.87553 15.9845C3.51769 15.2221 3.25245 14.4271 3.08841 13.6147L3.00084 13.181L3.42064 13.0413L7.90361 11.5495L8.54632 11.3356L8.56137 12.0128C8.56796 12.3093 8.60746 12.6136 8.68002 12.9114C8.78401 13.3129 8.95419 13.6827 9.17236 14.044Z" fill="#BA0B0B" stroke="white"/>
</svg>
